<?xml version="1.0"?>
<svg width="189" height="48" xmlns="http://www.w3.org/2000/svg" xmlns:svg="http://www.w3.org/2000/svg">
 <g class="layer">
  <title>Layer 1</title>
  <path d="m56.22,9.06c0,-0.62 -0.1,-1.1 -0.29,-1.29c-0.24,-0.24 -0.53,-0.38 -0.86,-0.38c-0.39,0 -0.68,0.14 -0.92,0.33c-0.19,0.24 -0.28,0.58 -0.28,1.1l0,1.59l-2.21,0l0,-1.39c0,-1.2 0.29,-2.11 0.86,-2.74c0.58,-0.67 1.44,-0.96 2.59,-0.96c1.11,0 1.97,0.29 2.55,0.96c0.57,0.63 0.91,1.54 0.91,2.74l0,0.33c0,1.58 -0.58,2.59 -1.63,3.02c0.57,0.29 1.01,0.67 1.25,1.2c0.23,0.48 0.38,1.15 0.38,1.92l0,1.15c0,1.15 -0.34,2.06 -0.91,2.73c-0.58,0.63 -1.44,0.91 -2.55,0.91c-1.15,0 -2.01,-0.28 -2.59,-0.91c-0.57,-0.67 -0.86,-1.58 -0.86,-2.73l0,-1.87l2.21,0l0,2.01c0,0.53 0.09,0.87 0.28,1.11c0.24,0.19 0.53,0.33 0.92,0.33c0.33,0 0.62,-0.14 0.86,-0.33c0.19,-0.24 0.29,-0.67 0.29,-1.35l0,-1.15c0,-0.67 -0.1,-1.15 -0.34,-1.44c-0.24,-0.28 -0.62,-0.43 -1.15,-0.43l-0.34,0l0,-2.06l0.48,0c0.44,0 0.77,-0.14 1.01,-0.33c0.24,-0.24 0.34,-0.63 0.34,-1.25l0,-0.82zm11.23,11.08l-2.31,0l-0.43,-2.68l-2.83,0l-0.38,2.68l-2.12,0l2.36,-14.67l3.36,0l2.35,14.67zm-5.23,-4.65l2.2,0l-1.1,-7.43l-1.1,7.43zm6.28,-10.02l2.31,0l0,12.56l1.87,0l0,-12.56l2.3,0l0,12.56l1.88,0l0,-12.56l2.3,0l0,12.56l1.2,0l0,3.79l-2.35,0l0,-1.68l-9.51,0l0,-14.67zm15.08,14.67l-2.36,0l0,-14.67l2.02,0l0,8.77l2.4,-8.77l2.88,0l0,14.67l-2.06,0l0,-10.64l-2.88,10.64zm6,-14.67l7.1,0l0,2.11l-2.4,0l0,12.56l-2.3,0l0,-12.56l-2.4,0l0,-2.11zm10.46,14.67l-2.3,0l0,-14.67l2.3,0l0,6.28l2.64,0l0,-6.28l2.35,0l0,14.67l-2.35,0l0,-6.28l-2.64,0l0,6.28zm14.11,0l-2.35,0l-0.38,-2.68l-2.84,0l-0.38,2.68l-2.11,0l2.35,-14.67l3.36,0l2.35,14.67zm-5.28,-4.65l2.21,0l-1.11,-7.43l-1.1,7.43zm9.65,-7.91c-0.38,0 -0.72,0.09 -0.86,0.33c-0.2,0.24 -0.29,0.63 -0.29,1.15l0,1.44c0,0.63 0.09,1.01 0.33,1.25c0.24,0.19 0.58,0.33 1.01,0.33l0.91,0l0,-4.5l-1.1,0zm-3.74,12.56c0.09,-0.29 0.19,-0.57 0.19,-0.81c0.05,-0.29 0.05,-0.63 0.05,-0.96l0,-2.26c0,-0.76 0.09,-1.44 0.33,-1.96c0.19,-0.53 0.62,-0.96 1.2,-1.15c-1.01,-0.48 -1.49,-1.49 -1.49,-2.98l0,-1.2c0,-1.1 0.24,-1.96 0.77,-2.49c0.58,-0.58 1.44,-0.86 2.64,-0.86l3.46,0l0,14.67l-2.31,0l0,-5.99l-0.76,0c-0.53,0 -0.92,0.14 -1.16,0.43c-0.24,0.29 -0.38,0.77 -0.38,1.44l0,2.3c0,0.29 0,0.57 0,0.77c0,0.19 0,0.33 -0.05,0.48c0,0.09 -0.05,0.19 -0.05,0.28c-0.05,0.1 -0.09,0.19 -0.09,0.29l-2.35,0zm17.66,0l-2.31,0l0,-14.67l6.1,0l0,2.11l-3.79,0l0,12.56zm8.21,-14.67c1.15,0 2.01,0.33 2.59,0.91c0.57,0.62 0.86,1.53 0.86,2.73l0,1.87c0,1.2 -0.29,2.11 -0.86,2.73c-0.58,0.63 -1.44,0.92 -2.59,0.92l-1.06,0l0,5.51l-2.3,0l0,-14.67l3.36,0zm-1.06,2.11l0,4.94l1.06,0c0.38,0 0.67,-0.1 0.86,-0.29c0.19,-0.19 0.29,-0.53 0.29,-1.06l0,-2.2c0,-0.53 -0.1,-0.91 -0.29,-1.11c-0.19,-0.19 -0.48,-0.28 -0.86,-0.28l-1.06,0zm13.01,12.56l-2.35,0l-0.39,-2.68l-2.83,0l-0.38,2.68l-2.12,0l2.36,-14.67l3.36,0l2.35,14.67zm-5.28,-4.65l2.25,0l-1.15,-7.43l-1.1,7.43zm11.23,0.38l1.58,-10.4l3.17,0l0,14.67l-2.16,0l0,-10.5l-1.58,10.5l-2.21,0l-1.68,-10.36l0,10.36l-2.02,0l0,-14.67l3.22,0l1.68,10.4zm8.54,0.91c0,0.53 0.1,0.87 0.34,1.11c0.19,0.19 0.48,0.33 0.86,0.33c0.39,0 0.68,-0.14 0.87,-0.33c0.24,-0.24 0.33,-0.58 0.33,-1.11l0,-7.96c0,-0.52 -0.09,-0.86 -0.33,-1.1c-0.19,-0.19 -0.48,-0.33 -0.87,-0.33c-0.38,0 -0.67,0.14 -0.86,0.33c-0.24,0.24 -0.34,0.58 -0.34,1.1l0,7.96zm-2.3,-7.76c0,-1.2 0.29,-2.11 0.91,-2.74c0.58,-0.67 1.44,-0.96 2.59,-0.96c1.15,0 2.02,0.29 2.59,0.96c0.63,0.63 0.92,1.54 0.92,2.74l0,7.62c0,1.15 -0.29,2.06 -0.92,2.73c-0.57,0.63 -1.44,0.91 -2.59,0.91c-1.15,0 -2.01,-0.28 -2.59,-0.91c-0.62,-0.67 -0.91,-1.58 -0.91,-2.73l0,-7.62zm7.82,-3.55l7.15,0l0,2.11l-2.4,0l0,12.56l-2.3,0l0,-12.56l-2.45,0l0,-2.11zm15.65,14.67l-2.35,0l-0.39,-2.68l-2.83,0l-0.38,2.68l-2.11,0l2.35,-14.67l3.36,0l2.35,14.67zm-5.28,-4.65l2.21,0l-1.11,-7.43l-1.1,7.43z" fill="#003DC2" id="svg_8"/>
  <path d="m51.99,42.77l0,-9.73l2.4,0c0.82,0 1.44,0.14 1.83,0.48c0.33,0.38 0.52,0.86 0.52,1.58l0,0.58c0,0.52 -0.09,0.96 -0.33,1.29c-0.24,0.29 -0.63,0.53 -1.2,0.62c1.15,0.2 1.73,0.87 1.73,2.07l0,0.86c0,1.49 -0.82,2.25 -2.5,2.25l-2.45,0zm0.77,-0.57l1.68,0c0.62,0 1.06,-0.15 1.34,-0.43c0.29,-0.29 0.44,-0.72 0.44,-1.25l0,-0.91c0,-0.63 -0.2,-1.06 -0.53,-1.3c-0.29,-0.28 -0.82,-0.38 -1.54,-0.38l-1.39,0l0,4.27zm0,-4.89l1.25,0c0.72,0 1.2,-0.1 1.54,-0.29c0.28,-0.24 0.43,-0.62 0.43,-1.25l0,-0.62c0,-0.53 -0.1,-0.91 -0.34,-1.15c-0.24,-0.29 -0.67,-0.39 -1.25,-0.39l-1.63,0l0,3.7zm5.28,5.46l2.5,-9.78l1.1,0l2.54,9.78l-0.76,0l-0.58,-2.15l-3.55,0l-0.58,2.15l-0.67,0zm1.39,-2.73l3.27,0l-1.64,-6.28l-1.63,6.28zm5.91,2.73l0,-9.73l0.72,0l0,9.16l2.83,0l0,-9.16l0.77,0l0,9.16l2.83,0l0,-9.16l0.77,0l0,9.73l-7.92,0zm9.21,0l0,-9.73l0.72,0l0,8.34l1.68,-4.03l1.83,-4.31l0.91,0l0,9.73l-0.72,0l0,-8.63l-1.68,4.03l-1.87,4.6l-0.87,0zm10.99,0l0,-9.73l0.77,0l0,4.55l3.55,0l0,-4.55l0.77,0l0,9.73l-0.77,0l0,-4.6l-3.55,0l0,4.6l-0.77,0zm6.24,0l2.5,-9.78l1.1,0l2.55,9.78l-0.72,0l-0.58,-2.15l-3.6,0l-0.53,2.15l-0.72,0zm1.4,-2.73l3.31,0l-1.68,-6.28l-1.63,6.28zm5.76,2.16l0.76,0c0.24,-0.19 0.39,-0.43 0.44,-0.67c0.09,-0.24 0.14,-0.53 0.14,-0.91l0.48,-7.58l4.18,0l0,9.16l0.95,0l0,1.92l-0.76,0l0,-1.35l-5.47,0l0,1.35l-0.72,0l0,-1.92zm1.53,0l3.7,0l0,-8.59l-2.69,0l-0.43,7.01c-0.05,0.38 -0.1,0.71 -0.15,0.95c-0.09,0.24 -0.24,0.44 -0.43,0.63zm6.62,0.57l0,-9.73l4.52,0l0,0.57l-3.75,0l0,3.94l3.12,0l0,0.57l-3.12,0l0,4.08l3.75,0l0,0.57l-4.52,0zm1.11,-10.35l0,-1.2l0.67,0l0,1.2l-0.67,0zm1.63,0l0,-1.2l0.67,0l0,1.2l-0.67,0zm2.78,10.35l3.03,-5.46l-2.88,-4.27l0.77,0l3.36,4.99l0,-4.99l0.77,0l0,4.99l3.36,-4.99l0.76,0l-2.83,4.22l2.98,5.51l-0.77,0l-2.74,-4.89l-0.76,1.15l0,3.74l-0.77,0l0,-3.79l-0.72,-1.1l-2.74,4.89l-0.82,0zm10.42,0l0,-9.73l0.77,0l0,4.55l3.55,0l0,-4.55l0.77,0l0,9.73l-0.77,0l0,-4.6l-3.55,0l0,4.6l-0.77,0zm6.43,0l0,-9.73l0.72,0l0,3.98l1.44,0c0.91,0 1.59,0.19 2.02,0.57c0.43,0.39 0.62,0.96 0.62,1.73l0,1.1c0,1.54 -0.81,2.35 -2.45,2.35l-2.35,0zm0.72,-0.57l1.63,0c0.63,0 1.06,-0.15 1.3,-0.48c0.29,-0.29 0.43,-0.72 0.43,-1.3l0,-1.1c0,-0.62 -0.14,-1.05 -0.48,-1.29c-0.29,-0.29 -0.77,-0.44 -1.44,-0.44l-1.44,0l0,4.61zm5.19,0.57l0,-9.73l0.76,0l0,9.73l-0.76,0zm2.06,0l0,-9.73l4.51,0l0,0.57l-3.74,0l0,3.94l3.12,0l0,0.57l-3.12,0l0,4.08l3.74,0l0,0.57l-4.51,0zm10.32,0l0,-9.73l0.77,0l0,4.55l1.97,0l0,-2.2c0,-0.72 0.19,-1.34 0.62,-1.78c0.43,-0.43 1.05,-0.67 1.87,-0.67c0.86,0 1.49,0.24 1.92,0.67c0.43,0.44 0.63,1.06 0.63,1.78l0,4.99c0,0.76 -0.2,1.34 -0.63,1.82c-0.43,0.43 -1.06,0.67 -1.92,0.67c-0.82,0 -1.44,-0.24 -1.87,-0.67c-0.43,-0.48 -0.62,-1.06 -0.62,-1.82l0,-2.21l-1.97,0l0,4.6l-0.77,0zm3.5,-2.35c0,0.58 0.15,1.01 0.44,1.35c0.24,0.33 0.72,0.48 1.29,0.48c0.62,0 1.06,-0.15 1.34,-0.48c0.29,-0.34 0.44,-0.77 0.44,-1.35l0,-5.08c0,-0.53 -0.15,-1.01 -0.44,-1.34c-0.28,-0.29 -0.72,-0.48 -1.34,-0.48c-0.57,0 -1.05,0.19 -1.29,0.48c-0.29,0.33 -0.44,0.81 -0.44,1.34l0,5.08zm5.52,2.35l0,-9.73l2.4,0c0.87,0 1.49,0.19 1.87,0.62c0.39,0.39 0.58,1.01 0.58,1.73l0,1.05c0,0.77 -0.19,1.35 -0.67,1.73c-0.43,0.38 -1.06,0.58 -1.97,0.58l-1.44,0l0,4.02l-0.77,0zm0.77,-4.6l1.44,0c0.67,0 1.15,-0.14 1.44,-0.38c0.29,-0.29 0.43,-0.72 0.43,-1.3l0,-1.15c0,-0.57 -0.09,-1.01 -0.38,-1.29c-0.24,-0.29 -0.67,-0.44 -1.3,-0.44l-1.63,0l0,4.56zm5.23,4.6l0,-9.73l0.67,0l0,8.34l1.69,-4.03l1.82,-4.31l0.91,0l0,9.73l-0.67,0l0,-8.63l-1.73,4.03l-1.87,4.6l-0.82,0zm6.34,-2.39l0,-4.99c0,-0.72 0.19,-1.34 0.62,-1.78c0.39,-0.43 1.01,-0.67 1.87,-0.67c0.82,0 1.44,0.24 1.83,0.67c0.43,0.44 0.62,1.06 0.62,1.78l0,0.81l-0.72,0l0,-0.86c0,-0.53 -0.14,-1.01 -0.43,-1.34c-0.24,-0.29 -0.72,-0.48 -1.3,-0.48c-0.62,0 -1.05,0.19 -1.34,0.48c-0.24,0.33 -0.38,0.81 -0.38,1.34l0,5.08c0,0.58 0.14,1.01 0.38,1.35c0.29,0.33 0.72,0.48 1.34,0.48c0.58,0 1.06,-0.15 1.3,-0.48c0.29,-0.34 0.43,-0.77 0.43,-1.35l0,-1.15l0.72,0l0,1.11c0,0.76 -0.19,1.34 -0.62,1.82c-0.39,0.43 -1.01,0.67 -1.83,0.67c-0.86,0 -1.48,-0.24 -1.87,-0.67c-0.43,-0.48 -0.62,-1.06 -0.62,-1.82zm6,-6.77l0,-0.57l5.37,0l0,0.57l-2.3,0l0,9.16l-0.77,0l0,-9.16l-2.3,0zm6.53,9.16l0,-9.73l0.76,0l0,3.98l1.4,0c0.91,0 1.58,0.19 2.01,0.57c0.43,0.39 0.67,0.96 0.67,1.73l0,1.1c0,1.54 -0.86,2.35 -2.49,2.35l-2.35,0zm0.76,-0.57l1.59,0c0.62,0 1.05,-0.15 1.34,-0.48c0.24,-0.29 0.39,-0.72 0.39,-1.3l0,-1.1c0,-0.62 -0.15,-1.05 -0.48,-1.29c-0.29,-0.29 -0.77,-0.44 -1.44,-0.44l-1.4,0l0,4.61zm5.14,0.57l0,-9.73l0.77,0l0,9.73l-0.77,0z" fill="#1A1A1A" id="svg_9"/>
  <path clip-rule="evenodd" d="m51.94,25.85l136.32,0l0,0.76l-136.32,0l0,-0.76z" fill="#F01F1F" fill-rule="evenodd" id="svg_10"/>
  <g id="svg_11">
   <path d="m23,19.85c-2.33,0 -4.26,1.92 -4.26,4.25c0,2.33 1.93,4.22 4.26,4.22c2.33,0 4.26,-1.88 4.26,-4.22c0,-2.33 -1.92,-4.25 -4.26,-4.25zm0,10.71c-3.57,0 -6.47,-2.89 -6.47,-6.46c0,-3.56 2.9,-6.46 6.47,-6.46c3.57,0 6.47,2.9 6.47,6.46c0,3.57 -2.9,6.46 -6.47,6.46z" fill="#F01F1F" id="svg_1"/>
   <path d="m24.64,39.72c0,0 0,-0.04 0.04,-0.04c2.01,-0.2 3.93,-0.8 5.67,-1.72l-1.09,-1.92c-1.56,0.79 -3.3,1.32 -5.14,1.48l0.03,-5.86c-0.36,0.04 -0.76,0.08 -1.16,0.08c-0.36,0 -0.76,-0.03 -1.12,-0.08l0,5.86c-1.81,-0.16 -3.54,-0.69 -5.1,-1.48l-1.12,1.92c1.72,0.92 3.66,1.52 5.7,1.72c0,0 0,0.04 0.04,0.04c0.6,0.04 0.93,0.4 0.93,0.92c0,0.28 -0.17,0.52 -0.37,0.72c-0.32,0.28 -0.56,0.73 -0.56,1.21c0,0.89 0.73,1.61 1.61,1.61c0.89,0 1.61,-0.72 1.61,-1.61c0,-0.48 -0.2,-0.92 -0.56,-1.21c0,0 0,0 0,-0.03c-0.2,-0.17 -0.32,-0.4 -0.32,-0.69c0,-0.52 0.32,-0.88 0.92,-0.92z" fill="#739BEB" id="svg_2"/>
   <path d="m11.8,16.44c1.05,-1.52 2.38,-2.76 3.86,-3.69l-1.12,-1.92c-1.65,1.05 -3.14,2.41 -4.34,4.05l-0.03,0c-0.37,0.53 -0.8,0.6 -1.25,0.37c-0.28,-0.17 -0.44,-0.4 -0.49,-0.64c0,-0.04 0,-0.04 0,-0.04c-0.08,-0.44 -0.32,-0.85 -0.76,-1.08c-0.76,-0.44 -1.77,-0.17 -2.21,0.6c-0.44,0.76 -0.16,1.77 0.6,2.2c0.44,0.24 0.92,0.24 1.32,0.13c0.28,-0.13 0.57,-0.08 0.8,0.03c0.44,0.28 0.57,0.73 0.37,1.29c-0.04,0 -0.04,0 -0.04,0.04c-0.8,1.84 -1.25,3.81 -1.33,5.77l2.25,0c0.04,-1.77 0.49,-3.49 1.25,-5.17l5.06,2.96c0.16,-0.36 0.32,-0.72 0.48,-1.04c0.2,-0.36 0.44,-0.64 0.69,-0.96l-5.1,-2.9z" fill="#739BEB" id="svg_3"/>
   <path d="m40.29,14.03c-0.49,-0.76 -1.45,-1.05 -2.21,-0.6c-0.44,0.24 -0.69,0.64 -0.77,1.08c0,0.04 0,0.04 0,0.04c-0.03,0.24 -0.2,0.49 -0.48,0.64c-0.44,0.24 -0.89,0.12 -1.25,-0.36l-0.04,0c-1.21,-1.65 -2.69,-3.01 -4.33,-4.06l-1.13,1.93c1.49,0.96 2.81,2.16 3.86,3.69l-5.1,2.89c0.23,0.32 0.48,0.6 0.68,0.96c0.2,0.32 0.33,0.69 0.49,1.05l5.06,-2.97c0.76,1.68 1.21,3.41 1.28,5.17l2.21,0c-0.08,-1.97 -0.52,-3.92 -1.32,-5.82c-0.28,-0.56 -0.13,-1 0.32,-1.28c0.24,-0.13 0.53,-0.16 0.8,-0.04c0.44,0.12 0.93,0.12 1.33,-0.16c0.76,-0.44 1.04,-1.41 0.6,-2.17z" fill="#739BEB" id="svg_4"/>
   <path d="m30.21,10.22c-1.73,-0.92 -3.66,-1.52 -5.67,-1.72c-0.04,0 -0.04,0 -0.04,0c-0.6,-0.08 -0.92,-0.44 -0.92,-0.92c0,-0.33 0.12,-0.56 0.32,-0.73c0.36,-0.32 0.56,-0.76 0.56,-1.24c0,-0.89 -0.72,-1.61 -1.61,-1.61c-0.88,0.04 -1.61,0.72 -1.61,1.65c0,0.48 0.24,0.88 0.57,1.2c0.23,0.17 0.36,0.44 0.36,0.73c0,0.48 -0.36,0.84 -0.93,0.92c-0.03,0 -0.03,0 -0.03,0c-2.05,0.2 -3.98,0.85 -5.71,1.72l1.12,1.97c1.57,-0.84 3.3,-1.36 5.1,-1.48l0,5.82c0.36,-0.04 0.76,-0.08 1.12,-0.08c0.4,0 0.8,0.03 1.17,0.08l-0.04,-5.82c1.85,0.12 3.57,0.64 5.14,1.48l1.09,-1.97z" fill="#003DC2" id="svg_5"/>
   <path d="m39.72,31.92c-0.44,-0.23 -0.92,-0.28 -1.36,-0.12c-0.24,0.08 -0.52,0.08 -0.76,-0.08c-0.44,-0.23 -0.6,-0.72 -0.36,-1.24c0,-0.04 0,-0.04 0,-0.04c0.85,-1.88 1.28,-3.85 1.36,-5.82l-2.25,0c-0.08,1.77 -0.48,3.53 -1.28,5.17l-5.06,-2.93c-0.13,0.36 -0.28,0.69 -0.49,1.05c-0.2,0.32 -0.4,0.64 -0.64,0.92l5.06,2.93c-1.05,1.49 -2.33,2.73 -3.82,3.66l1.09,1.97c1.68,-1.05 3.17,-2.41 4.38,-4.09c0.36,-0.49 0.85,-0.6 1.29,-0.33c0.23,0.13 0.4,0.36 0.44,0.64c0.13,0.44 0.37,0.85 0.8,1.08c0.77,0.44 1.73,0.2 2.18,-0.6c0.44,-0.76 0.2,-1.72 -0.57,-2.17z" fill="#739BEB" id="svg_6"/>
   <path d="m11.85,31.81l5.06,-2.93c-0.24,-0.28 -0.44,-0.6 -0.64,-0.92c-0.2,-0.36 -0.36,-0.73 -0.48,-1.05l-5.06,2.93c-0.8,-1.64 -1.21,-3.41 -1.29,-5.17l-2.24,0c0.08,1.97 0.52,3.92 1.36,5.82c0,0 0,0 0,0.04c0.24,0.52 0.12,1 -0.33,1.24c-0.28,0.16 -0.56,0.16 -0.8,0.08c-0.44,-0.16 -0.92,-0.13 -1.32,0.12c-0.8,0.44 -1.05,1.45 -0.6,2.21c0.44,0.76 1.45,1 2.21,0.56c0.4,-0.24 0.69,-0.64 0.76,-1.08c0.04,-0.28 0.2,-0.53 0.44,-0.64c0.44,-0.28 0.92,-0.16 1.29,0.32c0,0 0,0 0,0.04c1.21,1.65 2.69,3.01 4.38,4.02l1.12,-1.93c-1.49,-0.92 -2.81,-2.16 -3.86,-3.65z" fill="#739BEB" id="svg_7"/>
  </g>
 </g>
</svg>