<?xml version="1.0" encoding="UTF-8"?>
<svg id="_Слой_1" data-name="Слой_1" xmlns="http://www.w3.org/2000/svg" version="1.1" viewBox="0 0 39.53 42.71">
  <!-- Generator: Adobe Illustrator 29.3.1, SVG Export Plug-In . SVG Version: 2.1.0 Build 151)  -->
  <defs>
    <style>
      .st0 {
        fill: #1c4093;
      }

      .st1 {
        fill: #e5211e;
      }

      .st2 {
        fill: #7595cd;
      }
    </style>
  </defs>
  <g id="svg_11">
    <path id="svg_1" class="st1" d="M19.76,17.25c-2.33,0-4.26,1.92-4.26,4.25s1.93,4.22,4.26,4.22,4.26-1.88,4.26-4.22-1.92-4.25-4.26-4.25ZM19.76,27.96c-3.57,0-6.47-2.89-6.47-6.46s2.9-6.46,6.47-6.46,6.47,2.9,6.47,6.46-2.9,6.46-6.47,6.46Z"/>
    <path id="svg_2" class="st2" d="M21.4,37.12s0-.04.04-.04c2.01-.2,3.93-.8,5.67-1.72l-1.09-1.92c-1.56.79-3.3,1.32-5.14,1.48l.03-5.86c-.36.04-.76.08-1.16.08-.36,0-.76-.03-1.12-.08v5.86c-1.81-.16-3.54-.69-5.1-1.48l-1.12,1.92c1.72.92,3.66,1.52,5.7,1.72,0,0,0,.04.04.04.6.04.93.4.93.92,0,.28-.17.52-.37.72-.32.28-.56.73-.56,1.21,0,.89.73,1.61,1.61,1.61s1.61-.72,1.61-1.61c0-.48-.2-.92-.56-1.21v-.03c-.2-.17-.32-.4-.32-.69,0-.52.32-.88.92-.92h-.01Z"/>
    <path id="svg_3" class="st2" d="M8.56,13.84c1.05-1.52,2.38-2.76,3.86-3.69l-1.12-1.92c-1.65,1.05-3.14,2.41-4.34,4.05h-.03c-.37.53-.8.6-1.25.37-.28-.17-.44-.4-.49-.64v-.04c-.08-.44-.32-.85-.76-1.08-.76-.44-1.77-.17-2.21.6-.44.76-.16,1.77.6,2.2.44.24.92.24,1.32.13.28-.13.57-.08.8.03.44.28.57.73.37,1.29t-.04.04c-.8,1.84-1.25,3.81-1.33,5.77h2.25c.04-1.77.49-3.49,1.25-5.17l5.06,2.96c.16-.36.32-.72.48-1.04.2-.36.44-.64.69-.96l-5.1-2.9h0Z"/>
    <path id="svg_4" class="st2" d="M37.05,11.43c-.49-.76-1.45-1.05-2.21-.6-.44.24-.69.64-.77,1.08v.04c-.03.24-.2.49-.48.64-.44.24-.89.12-1.25-.36h-.04c-1.21-1.65-2.69-3.01-4.33-4.06l-1.13,1.93c1.49.96,2.81,2.16,3.86,3.69l-5.1,2.89c.23.32.48.6.68.96.2.32.33.69.49,1.05l5.06-2.97c.76,1.68,1.21,3.41,1.28,5.17h2.21c-.08-1.97-.52-3.92-1.32-5.82-.28-.56-.13-1,.32-1.28.24-.13.53-.16.8-.04.44.12.93.12,1.33-.16.76-.44,1.04-1.41.6-2.17h0Z"/>
    <path id="svg_5" class="st0" d="M26.97,7.62c-1.73-.92-3.66-1.52-5.67-1.72h-.04c-.6-.08-.92-.44-.92-.92,0-.33.12-.56.32-.73.36-.32.56-.76.56-1.24,0-.89-.72-1.61-1.61-1.61-.88.04-1.61.72-1.61,1.65,0,.48.24.88.57,1.2.23.17.36.44.36.73,0,.48-.36.84-.93.92h-.03c-2.05.2-3.98.85-5.71,1.72l1.12,1.97c1.57-.84,3.3-1.36,5.1-1.48v5.82c.36-.04.76-.08,1.12-.08.4,0,.8.03,1.17.08l-.04-5.82c1.85.12,3.57.64,5.14,1.48l1.09-1.97h.01Z"/>
    <path id="svg_6" class="st2" d="M36.48,29.32c-.44-.23-.92-.28-1.36-.12-.24.08-.52.08-.76-.08-.44-.23-.6-.72-.36-1.24v-.04c.85-1.88,1.28-3.85,1.36-5.82h-2.25c-.08,1.77-.48,3.53-1.28,5.17l-5.06-2.93c-.13.36-.28.69-.49,1.05-.2.32-.4.64-.64.92l5.06,2.93c-1.05,1.49-2.33,2.73-3.82,3.66l1.09,1.97c1.68-1.05,3.17-2.41,4.38-4.09.36-.49.85-.6,1.29-.33.23.13.4.36.44.64.13.44.37.85.8,1.08.77.44,1.73.2,2.18-.6.44-.76.2-1.72-.57-2.17h-.01Z"/>
    <path id="svg_7" class="st2" d="M8.61,29.21l5.06-2.93c-.24-.28-.44-.6-.64-.92-.2-.36-.36-.73-.48-1.05l-5.06,2.93c-.8-1.64-1.21-3.41-1.29-5.17h-2.24c.08,1.97.52,3.92,1.36,5.82v.04c.24.52.12,1-.33,1.24-.28.16-.56.16-.8.08-.44-.16-.92-.13-1.32.12-.8.44-1.05,1.45-.6,2.21.44.76,1.45,1,2.21.56.4-.24.69-.64.76-1.08.04-.28.2-.53.44-.64.44-.28.92-.16,1.29.32v.04c1.21,1.65,2.69,3.01,4.38,4.02l1.12-1.93c-1.49-.92-2.81-2.16-3.86-3.65h0Z"/>
  </g>
</svg>